<?xml version="1.0" encoding="UTF-8"?>
<!DOCTYPE svg PUBLIC "-//W3C//DTD SVG 1.1//EN" "http://www.w3.org/Graphics/SVG/1.1/DTD/svg11.dtd">
<!-- Creator: CorelDRAW X7 -->
<svg xmlns="http://www.w3.org/2000/svg" xml:space="preserve" width="3202px" height="2160px" version="1.1" style="shape-rendering:geometricPrecision; text-rendering:geometricPrecision; image-rendering:optimizeQuality; fill-rule:evenodd; clip-rule:evenodd"
viewBox="0 0 3202 2160"
 xmlns:xlink="http://www.w3.org/1999/xlink">
 <defs>
  <style type="text/css">
   <![CDATA[
    .fil1 {fill:#FEFEFE}
    .fil2 {fill:#F4A033}
    .fil4 {fill:#242222}
    .fil0 {fill:#4562AB}
    .fil3 {fill:#242222;fill-rule:nonzero}
   ]]>
  </style>
 </defs>
 <g id="Layer_x0020_1">
  <metadata id="CorelCorpID_0Corel-Layer"/>
  <path class="fil0" d="M1601 0c150,68 317,107 450,204 146,105 247,261 370,392 -18,164 -3,334 -54,491 -56,171 -173,315 -259,473 -162,33 -319,100 -484,100 -180,0 -353,-67 -530,-100 -81,-143 -194,-273 -245,-430 -55,-170 -45,-356 -68,-534 111,-122 199,-269 333,-366 145,-105 325,-153 487,-230z"/>
  <path class="fil1" d="M1601 837c5,-11 21,-39 27,-48 6,-10 9,-18 24,-18 -19,51 -15,120 15,169 18,31 51,53 87,62 5,14 5,22 5,37 44,-9 56,-42 50,-77 -4,-27 -12,-59 -6,-79 6,-21 15,-36 47,-29 -11,25 -13,54 -7,83 19,95 78,136 31,229 -26,51 -90,68 -127,73 -55,6 -73,44 -89,59 1,-15 0,-31 -4,-47 -10,-38 -30,-67 -53,-79 -23,12 -43,41 -53,79 -4,16 -5,32 -4,47 -16,-15 -34,-53 -89,-59 -37,-5 -101,-22 -127,-73 -47,-93 12,-134 31,-229 6,-29 4,-58 -7,-83 32,-7 41,8 47,29 6,20 -2,52 -6,79 -6,35 6,68 50,77 0,-15 0,-23 5,-37 36,-9 69,-31 87,-62 30,-49 34,-118 15,-169 15,0 18,8 24,18 6,9 22,37 27,48zm0 -198c-7,16 -52,51 -59,58 -9,11 -16,33 0,56 28,0 49,33 59,56 10,-23 31,-56 59,-56 16,-23 9,-45 0,-56 -7,-7 -52,-42 -59,-58zm54 202c-4,44 14,114 94,146 -10,-42 -51,-128 -94,-146zm-108 0c-43,18 -84,104 -94,146 80,-32 98,-102 94,-146zm54 582c-82,-39 -142,-48 -205,-24 -50,19 -101,51 -157,68l-4 25c59,-15 100,-47 149,-65 64,-24 134,-18 217,22 83,-40 153,-46 217,-22 49,18 90,50 149,65l-4 -25c-56,-17 -107,-49 -157,-68 -63,-24 -123,-15 -205,24zm0 -1071c3,8 20,18 32,26 19,12 30,30 27,58l-13 175 11 12 25 -244c10,13 23,43 35,54 18,17 24,40 18,65l-39 169 14 16 52 -216c10,-23 18,-34 42,-36 23,-3 48,14 73,39 -30,4 -45,3 -54,38l-100 383c-19,-26 -34,-55 -65,-66 1,-36 18,-65 25,-100 10,-45 -83,-79 -83,-119 0,40 -93,74 -83,119 7,35 24,64 25,100 -31,11 -46,40 -65,66l-100 -383c-9,-35 -24,-34 -54,-38 25,-25 50,-42 73,-39 24,2 32,13 42,36l52 216 14 -16 -39 -169c-6,-25 0,-48 18,-65 12,-11 25,-41 35,-54l25 244 11 -12 -13 -175c-3,-28 8,-46 27,-58 12,-8 29,-18 32,-26zm343 925c-31,-10 -67,-24 -165,-27 46,-13 82,-28 103,-60 25,-37 27,-89 25,-108 -3,-35 -20,-65 -34,-99 -17,-38 -28,-83 -10,-125 6,-16 28,-18 55,-12 31,9 84,47 113,56 26,8 99,10 127,-15 18,-15 28,-56 20,-82 -11,-32 -30,-49 -32,-92 11,25 43,62 55,84 21,21 24,88 13,118 -6,18 -25,38 -42,48 -38,22 -64,20 -97,23l-7 19c10,2 45,-2 74,-12 27,-10 50,-25 54,-30 0,31 -18,67 -50,86 -26,15 -59,20 -80,21l-9 16c45,0 100,-19 125,-46 -4,42 -16,71 -57,90 -24,12 -70,16 -87,19l-9 17c20,-2 37,-2 55,-6 18,-4 47,-12 62,-21 -6,23 -14,47 -40,60 -31,16 -69,26 -98,27l-8 15c32,4 79,-12 95,-22 -8,26 -35,65 -66,70 -17,3 -54,-1 -85,-12zm-686 0c31,-10 67,-24 165,-27 -46,-13 -82,-28 -103,-60 -25,-37 -27,-89 -25,-108 3,-35 20,-65 34,-99 17,-38 28,-83 10,-125 -6,-16 -28,-18 -55,-12 -31,9 -84,47 -113,56 -26,8 -99,10 -127,-15 -18,-15 -28,-56 -20,-82 11,-32 30,-49 32,-92 -11,25 -43,62 -55,84 -21,21 -24,88 -13,118 6,18 25,38 42,48 38,22 64,20 97,23l7 19c-10,2 -45,-2 -74,-12 -27,-10 -50,-25 -54,-30 0,31 18,67 50,86 26,15 59,20 80,21l9 16c-45,0 -100,-19 -125,-46 4,42 16,71 57,90 24,12 70,16 87,19l9 17c-20,-2 -37,-2 -55,-6 -18,-4 -47,-12 -62,-21 6,23 14,47 40,60 31,16 69,26 98,27l8 15c-32,4 -79,-12 -95,-22 8,26 35,65 66,70 17,3 54,-1 85,-12zm374 53c5,-7 9,-16 13,-26 1,-15 2,-23 -3,-47 -6,-25 -23,-59 -41,-68 -18,9 -34,35 -41,68 -4,16 -4,32 -3,47 6,16 15,30 24,39 0,0 0,0 0,0 6,6 13,11 20,14 11,-5 21,-15 31,-27zm-31 78c80,-39 148,-45 210,-22 52,20 95,56 150,68l-8 -53c-58,-9 -101,-49 -154,-70 -49,-20 -101,-19 -161,5 -10,16 -24,30 -37,36 -14,-6 -27,-19 -38,-37 -59,-23 -111,-24 -160,-4 -53,21 -96,61 -154,70l-8 53c55,-12 98,-48 150,-68 62,-23 130,-17 210,22zm0 -248c27,0 38,13 57,27 35,-21 59,-73 52,-112 -6,-31 -38,-83 -62,-125 -19,-32 -37,-75 -47,-98 -10,23 -28,66 -47,98 -24,42 -56,94 -62,125 -7,39 17,91 52,112 19,-14 30,-27 57,-27z"/>
  <path class="fil2" d="M1601 883c-1,10 -18,41 -36,72 22,18 36,33 43,53 7,22 4,50 -8,94l-14 -4c12,-41 15,-67 8,-86 -5,-16 -17,-29 -36,-45 -12,21 -24,40 -29,50 -15,25 -32,68 -24,97 7,28 24,41 34,54 19,-13 31,-24 62,-24 31,0 43,11 62,24 10,-13 27,-26 34,-54 8,-29 -9,-72 -24,-97 -15,-26 -70,-117 -72,-134z"/>
  <path class="fil3" d="M1076 477l8 4 -8 20 71 32 -11 24 -71 -32 -9 20 -8 -4 28 -64zm45 -71l50 31c17,11 19,26 7,44 -11,19 -26,23 -43,12l-49 -31 13 -21 50 31c7,4 12,6 15,6 4,0 7,-3 10,-8 6,-10 4,-18 -8,-26l-49 -31 4 -7zm59 -67l6 6 -14 16 59 51 -18 20 -59 -51 -14 16 -6 -6 46 -52zm131 -99l27 86 -13 8 -36 -33 15 47 -14 9 -66 -61 22 -14 39 37 -17 -51 12 -8 40 37 -17 -52 8 -5zm77 -37l24 53c8,19 3,32 -18,42 -20,9 -34,4 -42,-14l-25 -53 23 -10 25 53c3,7 6,11 10,13 3,2 7,1 12,-1 11,-5 13,-14 7,-26l-24 -53 8 -4zm48 74l-19 -84 37 -9c9,-2 17,-2 24,1 6,3 10,8 12,14 2,11 -2,19 -14,25 7,0 12,2 14,4 3,3 5,8 8,16 3,9 6,15 9,18l-27 6c-3,-4 -5,-9 -6,-15l-1 -5 -2 -6c-2,-10 -7,-14 -15,-12l-4 1 9 41 -25 5zm14 -53l5 -1c10,-2 13,-8 11,-18 -2,-10 -8,-13 -17,-11l-5 1 6 29zm81 -53l11 86 -25 3 -11 -86 25 -3zm94 40l-3 44 -25 -2 5 -87 25 2 -2 35 21 1 2 -35 25 1 -5 87 -25 -1 2 -43 -20 -2zm115 -26l5 90 -25 -5 -1 -20 -25 -5 -10 17 -9 -2 43 -80 22 5zm-42 52l21 4 -2 -40 -19 36zm143 -18l-30 81 -18 -6 -15 -65 -19 52 -8 -3 30 -81 15 5 17 70 20 -56 8 3zm-17 90l45 -75 31 19c22,13 25,32 10,57 -15,25 -34,30 -57,17l-29 -18zm25 7l6 3c5,3 10,3 15,0 4,-3 10,-11 17,-23 8,-11 12,-20 12,-26 1,-5 -1,-10 -6,-13l-6 -3 -38 62zm133 -3l-38 82 -19 -16 8 -18 -20 -17 -16 11 -8 -6 76 -50 17 14zm-62 26l17 14 17 -36 -34 22zm135 50l-56 21 -24 21 -16 -19 24 -21 25 -54 17 19 -19 42 42 -17 7 8zm31 47l-58 68 -15 -21 13 -15 -14 -22 -19 6 -6 -8 87 -27 12 19zm-66 8l12 17 27 -30 -39 13zm117 86l-79 38 -8 -18 34 -56 -50 24 -3 -8 78 -38 7 15 -36 61 53 -26 4 8zm17 46l-82 29 -8 -23 82 -30 8 24zm-553 847c-82,-39 -142,-48 -205,-24 -50,19 -101,51 -157,68l-4 25c59,-15 100,-47 149,-65 64,-24 134,-18 217,22 83,-40 153,-46 217,-22 49,18 90,50 149,65l-4 -25c-56,-17 -107,-49 -157,-68 -63,-24 -123,-15 -205,24zm0 -15c80,-39 148,-45 210,-22 52,20 95,56 150,68l-8 -53c-58,-9 -101,-49 -154,-70 -49,-20 -101,-19 -161,5 -10,16 -24,30 -37,36 -14,-6 -27,-19 -38,-37 -59,-23 -111,-24 -160,-4 -53,21 -96,61 -154,70l-8 53c55,-12 98,-48 150,-68 62,-23 130,-17 210,22zm31 -78c5,-7 9,-16 13,-26 1,-15 2,-23 -3,-47 -6,-25 -23,-59 -41,-68 -18,9 -34,35 -41,68 -4,16 -4,32 -3,47 6,16 15,30 24,39 0,0 0,0 0,0 6,6 13,11 20,14 11,-5 21,-15 31,-27zm-31 -447c-1,10 -18,41 -36,72 22,18 36,33 43,53 7,22 4,50 -8,94l-14 -4c12,-41 15,-67 8,-86 -5,-16 -17,-29 -36,-45 -12,21 -24,40 -29,50 -15,25 -32,68 -24,97 7,28 24,41 34,54 19,-13 31,-24 62,-24 31,0 43,11 62,24 10,-13 27,-26 34,-54 8,-29 -9,-72 -24,-97 -15,-26 -70,-117 -72,-134zm0 -244c-7,16 -52,51 -59,58 -9,11 -16,33 0,56 28,0 49,33 59,56 10,-23 31,-56 59,-56 16,-23 9,-45 0,-56 -7,-7 -52,-42 -59,-58zm54 202c-4,44 14,114 94,146 -10,-42 -51,-128 -94,-146zm-108 0c-43,18 -84,104 -94,146 80,-32 98,-102 94,-146zm54 -489c-3,8 -20,18 -32,26 -19,12 -30,30 -27,58l13 175 -11 12 -25 -244c-10,13 -23,43 -35,54 -18,17 -24,40 -18,65l39 169 -14 16 -52 -216c-10,-23 -18,-34 -42,-36 -23,-3 -48,14 -73,39 30,4 45,3 54,38l100 383c19,-26 34,-55 65,-66 -1,-36 -18,-65 -25,-100 -10,-45 83,-79 83,-119 0,40 93,74 83,119 -7,35 -24,64 -25,100 31,11 46,40 65,66l100 -383c9,-35 24,-34 54,-38 -25,-25 -50,-42 -73,-39 -24,2 -32,13 -42,36l-52 216 -14 -16 39 -169c6,-25 0,-48 -18,-65 -12,-11 -25,-41 -35,-54l-25 244 -11 -12 13 -175c3,-28 -8,-46 -27,-58 -12,-8 -29,-18 -32,-26zm343 925c31,11 68,15 85,12 31,-5 58,-44 66,-70 -16,10 -63,26 -95,22l8 -15c29,-1 67,-11 98,-27 26,-13 34,-37 40,-60 -15,9 -44,17 -62,21 -18,4 -35,4 -55,6l9 -17c17,-3 63,-7 87,-19 41,-19 53,-48 57,-90 -25,27 -80,46 -125,46l9 -16c21,-1 54,-6 80,-21 32,-19 50,-55 50,-86 -4,5 -27,20 -54,30 -29,10 -64,14 -74,12l7 -19c33,-3 59,-1 97,-23 17,-10 36,-30 42,-48 11,-30 8,-97 -13,-118 -12,-22 -44,-59 -55,-84 2,43 21,60 32,92 8,26 -2,67 -20,82 -28,25 -101,23 -127,15 -29,-9 -82,-47 -113,-56 -27,-6 -49,-4 -55,12 -18,42 -7,87 10,125 14,34 31,64 34,99 2,19 0,71 -25,108 -21,32 -57,47 -103,60 98,3 134,17 165,27zm-343 -117c-27,0 -38,13 -57,27 -35,-21 -59,-73 -52,-112 6,-31 38,-83 62,-125 19,-32 37,-75 47,-98 10,23 28,66 47,98 24,42 56,94 62,125 7,39 -17,91 -52,112 -19,-14 -30,-27 -57,-27zm0 -323c-5,-11 -21,-39 -27,-48 -6,-10 -9,-18 -24,-18 19,51 15,120 -15,169 -18,31 -51,53 -87,62 -5,14 -5,22 -5,37 -44,-9 -56,-42 -50,-77 4,-27 12,-59 6,-79 -6,-21 -15,-36 -47,-29 11,25 13,54 7,83 -19,95 -78,136 -31,229 26,51 90,68 127,73 55,6 73,44 89,59 -1,-15 0,-31 4,-47 10,-38 30,-67 53,-79 23,12 43,41 53,79 4,16 5,32 4,47 16,-15 34,-53 89,-59 37,-5 101,-22 127,-73 47,-93 -12,-134 -31,-229 -6,-29 -4,-58 7,-83 -32,-7 -41,8 -47,29 -6,20 2,52 6,79 6,35 -6,68 -50,77 0,-15 0,-23 -5,-37 -36,-9 -69,-31 -87,-62 -30,-49 -34,-118 -15,-169 -15,0 -18,8 -24,18 -6,9 -22,37 -27,48zm-343 440c31,-10 67,-24 165,-27 -46,-13 -82,-28 -103,-60 -25,-37 -27,-89 -25,-108 3,-35 20,-65 34,-99 17,-38 28,-83 10,-125 -6,-16 -28,-18 -55,-12 -31,9 -84,47 -113,56 -26,8 -99,10 -127,-15 -18,-15 -28,-56 -20,-82 11,-32 30,-49 32,-92 -11,25 -43,62 -55,84 -21,21 -24,88 -13,118 6,18 25,38 42,48 38,22 64,20 97,23l7 19c-10,2 -45,-2 -74,-12 -27,-10 -50,-25 -54,-30 0,31 18,67 50,86 26,15 59,20 80,21l9 16c-45,0 -100,-19 -125,-46 4,42 16,71 57,90 24,12 70,16 87,19l9 17c-20,-2 -37,-2 -55,-6 -18,-4 -47,-12 -62,-21 6,23 14,47 40,60 31,16 69,26 98,27l8 15c-32,4 -79,-12 -95,-22 8,26 35,65 66,70 17,3 54,-1 85,-12zm183 -283l3 -14 2 -4 1 -5 2 -5 1 -5 2 -5 2 -5 3 -6 2 -5 2 -6 3 -5 3 -6 3 -6 3 -6 0 -1 -104 -399 -1 -3 -1 -3 -1 -2 -1 -3 0 -2 -1 -1 -1 -2 -1 -1 -1 -2 -1 -1 -1 -1 -1 -1 -1 -1 -1 0 -1 -1 -1 -1 -1 0 -1 -1 -1 0 -2 -1 -1 0 -2 0 -2 -1 -2 0 -2 -1 -2 0 -2 0 -2 0 -3 -1 -2 0 -3 0 -23 -3 17 -17 2 -2 3 -3 2 -2 2 -2 3 -2 2 -2 3 -2 2 -2 2 -2 3 -2 2 -2 3 -2 2 -1 3 -2 2 -1 3 -2 2 -1 3 -1 2 -1 3 -2 2 -1 3 0 3 -1 2 -1 3 0 3 -1 2 0 3 0 3 -1 2 0 3 1 2 0 3 0 2 1 2 0 3 1 2 0 2 1 2 1 2 1 2 0 2 1 1 2 2 1 2 1 1 1 2 2 1 1 2 2 1 1 1 2 2 1 1 2 1 2 1 2 1 1 1 2 1 2 1 2 1 2 1 2 1 3 2 3 5 21 0 0 0 -3 0 -2 0 -3 0 -2 0 -3 0 -2 1 -3 0 -2 1 -3 0 -2 1 -2 1 -3 1 -2 0 -2 1 -3 2 -2 1 -2 1 -2 1 -2 2 -2 1 -2 2 -2 1 -2 2 -2 2 -2 2 -2 1 -1 1 -1 1 -1 1 -1 1 -1 1 -2 1 -1 1 -2 1 -1 1 -2 1 -2 1 -2 1 -2 1 -1 2 -2 1 -2 1 -2 1 -2 1 -2 1 -2 1 -2 1 -2 1 -2 1 -2 1 -2 1 -1 2 -2 1 -2 1 -1 1 -2 1 -2 16 -24 6 65 0 0 1 -2 0 -3 1 -2 1 -2 1 -3 0 -2 1 -2 1 -2 2 -3 1 -2 1 -2 1 -1 2 -2 1 -2 2 -2 1 -2 2 -1 1 -2 2 -1 2 -2 2 -1 2 -2 1 -1 2 -1 3 -2 2 -1 3 -2 2 -1 3 -2 2 -2 2 -1 3 -2 2 -1 1 -2 2 -1 1 -2 2 -1 0 -1 1 0 9 -18 9 18 1 0 0 1 2 1 1 2 2 1 1 2 2 1 3 2 2 1 2 2 3 2 2 1 3 2 2 1 3 2 2 1 1 1 2 2 2 1 2 2 2 1 1 2 2 1 1 2 2 2 1 2 2 2 1 1 1 2 1 2 2 3 1 2 1 2 0 2 1 3 1 2 1 2 0 3 1 2 0 0 6 -65 16 24 1 2 1 2 1 1 1 2 2 2 1 1 1 2 1 2 1 2 1 2 1 2 1 2 1 2 1 2 1 2 1 2 2 2 1 1 1 2 1 2 1 2 1 2 1 1 1 2 1 1 1 2 1 1 1 1 1 1 1 1 1 1 2 2 2 2 2 2 1 2 2 2 1 2 2 2 1 2 1 2 1 2 2 2 1 3 0 2 1 2 1 3 1 2 0 2 1 3 0 2 1 3 0 2 0 3 0 2 0 3 0 2 0 3 0 0 5 -21 2 -3 1 -3 1 -2 1 -2 1 -2 1 -2 1 -2 1 -1 1 -2 1 -2 1 -2 2 -1 1 -2 1 -1 2 -2 1 -1 2 -2 1 -1 2 -1 2 -1 1 -2 2 -1 2 0 2 -1 2 -1 2 -1 2 0 3 -1 2 0 2 -1 3 0 2 0 3 -1 2 0 3 1 3 0 2 0 3 1 3 0 2 1 3 1 3 0 2 1 3 2 2 1 3 1 2 1 3 2 2 1 3 2 2 1 3 2 2 2 3 2 2 2 2 2 3 2 2 2 3 2 2 2 2 2 3 3 2 2 17 17 -23 3 -3 0 -2 0 -3 1 -2 0 -2 0 -2 0 -2 1 -2 0 -2 1 -2 0 -1 0 -2 1 -1 0 -1 1 -1 0 -1 1 -1 1 -1 0 -1 1 -1 1 -1 1 -1 1 -1 2 -1 1 -1 2 -1 1 0 2 -1 3 -1 2 -1 3 -1 3 -104 399 0 1 3 6 3 6 3 6 3 5 2 6 2 5 3 6 2 5 2 5 1 5 2 5 1 5 2 4 3 14 1 0 3 8 0 3 1 2 1 3 0 2 0 2 1 3 0 2 0 2 1 3 0 2 0 0 1 0 3 -2 3 -1 2 -1 3 -2 2 -1 2 -2 2 -2 1 -2 2 -1 2 -2 1 -2 1 -2 1 -3 1 -2 1 -2 1 -2 1 -3 0 -2 1 -3 0 -2 0 -3 0 -3 1 -3 -1 -3 0 -2 0 -3 0 -3 -1 -3 0 -3 -1 -2 0 -3 0 -3 -2 -7 0 -3 -1 -3 0 -3 -1 -2 0 -3 -1 -3 0 -2 0 -3 -1 -3 0 -3 0 -2 -1 -3 0 -3 0 -2 0 -3 0 -3 0 -2 0 -3 0 -2 0 -3 0 -2 1 -3 0 -2 1 -3 0 -2 1 -2 1 -2 0 -2 1 -2 1 -2 1 -2 1 -2 1 -2 1 -2 1 -2 1 -2 1 -1 2 -2 1 -2 2 -1 2 -2 1 -1 2 -1 2 -2 3 -1 2 0 2 -1 3 -1 2 0 3 0 3 -1 3 0 3 1 2 0 4 0 3 1 9 2 2 -2 1 -1 2 -2 2 -1 2 -1 2 -1 2 -1 2 -1 2 -1 2 0 2 -1 2 0 2 0 3 -1 2 0 2 0 2 0 3 0 2 0 3 0 2 0 3 1 2 0 3 0 2 0 3 1 2 0 4 1 3 1 4 1 3 2 3 1 4 2 4 1 3 2 4 2 4 2 4 2 3 2 4 2 4 2 4 3 4 2 4 2 4 2 4 2 3 3 4 2 4 2 4 2 3 2 4 2 3 1 4 2 3 2 3 1 3 1 3 2 2 1 3 0 2 1 2 1 3 0 3 1 3 0 4 1 4 0 3 1 4 0 4 0 5 0 4 0 4 0 5 0 4 0 5 0 4 0 5 -1 4 0 5 -1 4 -1 4 -1 4 0 4 -2 4 -1 4 -1 3 -1 3 -2 3 -1 3 -2 2 -2 3 -1 1 -1 1 -2 1 -1 1 -2 2 -1 1 -2 1 -2 1 -2 1 -2 1 -2 1 -3 1 -2 1 -2 1 -3 0 -3 1 -2 1 -3 0 -2 1 -3 0 -3 0 -2 0 -3 1 -3 0 -2 0 -3 0 -2 -1 -3 0 -2 0 -3 -1 -2 0 -2 -1 -2 -1 -3 -1 -3 -1 -2 -1 -3 -1 -2 -1 -3 -1 -2 -1 -3 -2 -2 -1 -3 -1 -2 -1 -3 -2 -2 -1 -3 -1 -2 -1 -3 -2 -2 -1 -3 -1 -3 -1 -3 -1 -3 -1 -3 -1 -3 -1 -3 -1 -4 -1 -3 -1 -4 0 -4 -1 -3 0 -4 -1 -5 -4 -60 24 54 1 2 1 2 1 3 2 2 1 3 2 2 2 3 1 3 2 2 2 3 2 3 2 3 2 3 2 2 2 3 2 3 4 6 2 3 2 2 2 3 2 3 2 2 2 3 2 3 1 2 2 3 1 2 2 3 1 2 1 1 1 2 3 3 2 3 2 3 1 4 2 3 1 4 2 4 1 4 1 4 1 5 1 4 1 4 0 5 1 4 0 5 1 4 0 5 0 5 0 4 0 5 0 4 0 5 -1 4 0 4 0 4 -1 4 -1 4 0 4 -1 4 -1 3 -1 3 -1 2 -1 2 -1 2 -1 2 -1 2 -1 2 -1 2 -1 2 -2 2 -1 2 -1 2 -2 2 -1 1 -2 2 -1 2 -2 2 -1 1 -2 2 0 0 5 8 0 6 0 4 0 3 -1 3 0 4 -1 3 0 3 -1 4 -1 3 -1 3 -2 3 -1 4 -1 3 -2 3 -1 3 -2 3 -2 4 -2 3 -2 3 -1 2 7 10 0 8 -1 4 0 4 -1 4 -1 3 0 4 -1 4 -1 4 -1 3 -1 4 -1 3 -2 4 -1 3 -2 3 -1 3 -2 4 -2 3 -2 3 -2 3 -2 3 -3 2 -2 3 -3 3 -3 2 -3 3 -2 2 5 13 -2 5 0 2 -1 3 -1 2 0 2 -1 2 -1 3 -1 2 -1 2 0 2 -1 3 -1 2 -1 2 -1 2 -2 3 -1 2 -1 2 -1 2 -2 2 -1 3 -2 2 -2 2 -2 2 -1 2 -2 2 -3 2 -2 1 -2 2 -2 2 -3 1 -3 2 -2 1 -3 2 -3 1 0 0 0 9 -1 4 -1 3 -1 3 -2 3 -1 3 -1 3 -2 3 -2 3 -1 3 -2 3 -2 3 -2 3 -2 3 -2 3 -2 2 -3 3 -2 3 -2 3 -3 2 -3 3 -2 2 -3 2 -3 3 -3 2 -3 2 -3 2 -3 1 -3 2 -4 1 -3 1 -3 1 -4 1 -2 0 -2 0 -2 0 -2 1 -3 0 -2 0 -2 0 -3 0 -3 0 -2 -1 -3 0 -3 0 -3 0 -2 0 -3 -1 -3 0 -3 0 -3 -1 -3 0 -3 -1 -4 0 -3 -1 -3 -1 -3 0 -3 -1 -3 -1 -3 -1 -4 0 -3 -1 -3 -1 -3 -1 -3 -1 -3 -1 -3 -1 -3 -1 -3 -1 -3 -1 -3 -1 -3 -1 -4 -1 -3 -1 -4 -1 -3 -1 -4 -1 -4 -1 -4 -1 -5 -1 -4 -1 -5 -1 -5 -1 -5 -1 -5 -1 -6 -1 -5 0 -7 -1 -6 -1 -7 -1 -7 0 -7 -1 -7 0 -8 -1 -9 0 -8 -1 -67 -2 -7 0 -1 1 -3 2 -3 1 -2 2 -3 2 -2 2 -3 2 -2 2 -3 2 -2 3 -2 2 -2 2 -2 2 -2 2 -1 2 -2 3 -2 2 -2 2 -1 2 -2 2 -2 2 -1 2 -2 1 -18 18 6 -2 6 -2 6 -1 6 -2 6 -1 6 -2 6 -1 6 -1 6 0 6 -1 5 0 6 -1 6 0 6 0 5 0 6 1 5 0 6 1 6 1 5 1 5 1 6 1 5 1 6 2 5 2 5 1 5 3 6 2 5 2 5 2 5 3 4 2 5 3 5 2 5 3 5 3 4 2 5 3 5 3 4 2 5 3 4 2 5 3 4 3 5 2 5 3 4 2 5 2 4 2 5 2 5 2 4 2 5 2 5 2 5 1 5 1 5 2 5 1 12 2 10 67 7 45 -20 -5 -6 -2 -5 -1 -6 -2 -5 -2 -5 -2 -5 -2 -5 -2 -5 -2 -5 -2 -5 -2 -4 -2 -5 -3 -5 -2 -4 -2 -5 -3 -4 -2 -4 -2 -5 -2 -4 -3 -5 -2 -4 -2 -4 -2 -5 -3 -4 -2 -4 -2 -5 -2 -4 -2 -4 -2 -5 -2 -4 -1 -4 -2 -6 -2 -6 -2 -6 -2 -6 -1 -6 -2 -5 -1 -6 -1 -6 -1 -6 0 -7 -1 -6 0 -6 0 -6 0 -6 0 -7 0 -6 1 -7 1 -6 1 -7 1 -7 1 -6 1 -7 2 -7 2 -7 2 -7 2 -7 2 -8 3 -7 3 -7 3 -8 3 -7 3 -12 6 -12 -6 -7 -3 -8 -3 -7 -3 -7 -3 -8 -3 -7 -2 -7 -2 -7 -2 -7 -2 -7 -2 -6 -1 -7 -1 -7 -1 -6 -1 -7 -1 -6 -1 -7 0 -6 0 -6 0 -6 0 -6 0 -7 1 -6 0 -6 1 -6 1 -5 1 -6 2 -6 1 -6 2 -6 2 -6 2 -4 2 -4 1 -5 2 -4 2 -4 2 -5 2 -4 2 -4 2 -5 3 -4 2 -4 2 -5 2 -4 3 -5 2 -4 2 -4 2 -5 3 -4 2 -5 2 -5 3 -4 2 -5 2 -5 2 -5 2 -5 2 -5 2 -5 2 -5 2 -6 2 -5 1 -6 2 -20 5 7 -45 10 -67 12 -2 5 -1 5 -2 5 -1 5 -1 5 -2 5 -2 4 -2 5 -2 5 -2 4 -2 5 -2 4 -2 5 -3 5 -2 4 -3 5 -3 4 -2 5 -3 4 -2 5 -3 5 -3 4 -2 5 -3 5 -3 5 -2 5 -3 4 -2 5 -3 5 -2 5 -2 6 -2 5 -3 5 -1 5 -2 6 -2 5 -1 6 -1 5 -1 5 -1 6 -1 6 -1 5 0 6 -1 5 0 6 0 6 0 6 1 5 0 6 1 6 0 6 1 6 1 6 2 6 1 6 2 6 1 6 2 6 2 -18 -18 -2 -1 -1 -2 -2 -2 -2 -2 -1 -2 -2 -2 -2 -2 -2 -3 -1 -2 -2 -2 -2 -2 -2 -2 -2 -2 -2 -3 -3 -2 -2 -2 -3 -2 -2 -2 -3 -2 -2 -2 -3 -1 -3 -2 -1 -1 -7 0 -67 2 -8 1 -9 0 -8 1 -7 0 -7 1 -7 0 -7 1 -6 1 -7 1 -5 0 -6 1 -5 1 -5 1 -5 1 -5 1 -4 1 -5 1 -4 1 -4 1 -4 1 -3 1 -4 1 -3 1 -4 1 -3 1 -3 1 -3 1 -3 1 -3 1 -3 1 -3 1 -3 1 -3 1 -3 1 -3 1 -4 0 -3 1 -3 1 -3 1 -3 0 -3 1 -3 1 -4 0 -3 1 -3 0 -3 1 -3 0 -3 0 -3 1 -2 0 -3 0 -3 0 -3 0 -2 1 -3 0 -3 0 -2 0 -2 0 -3 0 -2 -1 -2 0 -2 0 -2 0 -4 -1 -3 -1 -3 -1 -4 -1 -3 -2 -3 -1 -3 -2 -3 -2 -3 -2 -3 -3 -3 -2 -2 -2 -3 -3 -3 -2 -2 -3 -2 -3 -3 -3 -2 -2 -2 -3 -2 -3 -2 -3 -2 -3 -2 -3 -1 -3 -2 -3 -2 -3 -1 -3 -1 -3 -2 -3 -1 -3 -1 -3 -1 -3 -1 -11 -2 0 -3 -2 -2 -1 -3 -2 -3 -1 -2 -2 -2 -2 -2 -1 -3 -2 -2 -2 -1 -2 -2 -2 -2 -2 -2 -2 -1 -3 -2 -2 -1 -2 -1 -2 -1 -2 -2 -3 -1 -2 -1 -2 -1 -2 -1 -3 0 -2 -1 -2 -1 -2 -1 -3 -1 -2 0 -2 -1 -2 -1 -3 0 -2 -2 -5 5 -13 -2 -2 -3 -3 -3 -2 -3 -3 -2 -3 -3 -2 -2 -3 -2 -3 -2 -3 -2 -3 -2 -4 -1 -3 -2 -3 -1 -3 -2 -4 -1 -3 -1 -4 -1 -3 -1 -4 -1 -4 0 -4 -1 -3 -1 -4 0 -4 -1 -4 0 -8 7 -10 -1 -2 -2 -3 -2 -3 -2 -4 -2 -3 -1 -3 -2 -3 -1 -3 -1 -4 -2 -3 -1 -3 -1 -3 -1 -4 0 -3 -1 -3 0 -4 -1 -3 0 -3 0 -4 0 -6 5 -8 0 0 -2 -2 -1 -1 -2 -2 -1 -2 -2 -2 -1 -1 -2 -2 -1 -2 -1 -2 -2 -2 -1 -2 -1 -2 -1 -2 -1 -2 -1 -2 -1 -2 -1 -2 -1 -2 -1 -3 -1 -3 -1 -4 0 -4 -1 -4 -1 -4 0 -4 0 -4 -1 -4 0 -5 0 -4 0 -5 0 -4 0 -5 0 -5 1 -4 0 -5 1 -4 0 -5 1 -4 1 -4 1 -5 1 -4 1 -4 2 -4 1 -4 2 -3 1 -4 2 -3 2 -3 3 -3 1 -2 1 -1 1 -2 2 -3 1 -2 2 -3 1 -2 2 -3 2 -3 2 -2 2 -3 2 -3 2 -2 2 -3 4 -6 2 -3 2 -3 2 -2 2 -3 2 -3 2 -3 2 -3 2 -2 1 -3 2 -3 2 -2 1 -3 2 -2 1 -3 1 -2 1 -2 24 -54 -4 60 -1 5 0 4 -1 3 0 4 -1 4 -1 3 -1 4 -1 3 -1 3 -1 3 -1 3 -1 3 -1 3 -1 3 -2 2 -1 3 -1 2 -1 3 -2 2 -1 3 -1 2 -1 3 -2 2 -1 3 -1 2 -1 3 -1 2 -1 3 -1 2 -1 3 -1 3 -1 2 0 2 -1 2 0 3 0 2 -1 3 0 2 0 3 0 2 1 3 0 3 0 2 0 3 1 3 0 2 1 3 1 2 0 3 1 3 1 2 1 2 1 3 1 2 1 2 1 2 1 2 1 2 2 1 1 2 1 1 1 2 1 1 3 1 2 2 3 2 3 1 3 2 3 1 4 1 4 1 4 2 4 0 4 1 4 1 5 1 4 0 5 1 4 0 5 0 4 0 5 0 4 0 4 0 5 0 4 0 4 0 3 -1 4 0 4 -1 3 0 3 -1 3 0 2 -1 2 -1 3 0 2 -1 3 -2 3 -1 3 -1 3 -2 4 -2 3 -1 4 -2 3 -2 4 -2 4 -2 4 -2 3 -3 4 -2 4 -2 4 -2 4 -2 4 -3 4 -2 4 -2 3 -2 4 -2 4 -2 4 -2 3 -2 4 -1 4 -2 3 -1 3 -2 4 -1 3 -1 4 -1 2 0 3 -1 2 0 3 0 2 0 3 -1 2 0 3 0 2 0 3 0 2 0 2 0 2 0 3 1 2 0 2 0 2 1 2 0 2 1 2 1 2 1 2 1 2 1 2 1 2 2 1 1 2 2 9 -2 3 -1 4 0 2 0 3 -1 3 0 3 1 3 0 2 0 3 1 2 1 2 0 3 1 2 2 2 1 1 1 2 2 2 1 1 2 2 2 1 1 1 2 1 2 1 2 1 2 1 2 1 2 1 2 1 2 0 2 1 2 1 2 0 2 1 3 0 2 1 3 0 2 0 3 0 2 0 3 0 2 0 3 0 3 0 2 0 3 -1 3 0 2 0 3 -1 3 0 3 0 2 -1 3 0 3 -1 2 0 3 -1 3 0 3 -2 7 0 3 0 3 -1 2 0 3 -1 3 0 3 0 3 0 2 -1 3 1 3 0 3 0 3 0 2 1 3 0 2 1 3 1 2 1 2 1 2 1 3 1 2 1 2 2 2 2 1 1 2 2 2 2 2 2 1 3 2 2 1 3 1 3 2 1 0 0 0 0 -2 1 -3 0 -2 0 -2 1 -3 0 -2 0 -2 1 -3 1 -2 0 -3 3 -8 1 0z"/>
  <path class="fil4" d="M921 1747l29 0 0 52 41 -52 35 0 -53 68 59 84 -35 0 -47 -68 0 68 -29 0 0 -152zm131 0l84 0 0 28 -55 0 0 28 55 0 0 28 -55 0 0 40 55 0 0 28 -84 0 0 -152zm125 0l28 0 36 106 35 -106 28 0 26 152 -28 0 -16 -96 -33 96 -25 0 -32 -96 -17 96 -28 0 26 -152zm177 0l83 0 0 28 -55 0 0 28 55 0 0 28 -55 0 0 40 55 0 0 28 -83 0 0 -152zm110 0l27 0 66 100 0 -100 29 0 0 152 -28 0 -65 -100 0 100 -29 0 0 -152zm142 0l84 0 0 28 -28 0 0 124 -29 0 0 -124 -27 0 0 -28zm104 0l83 0 0 28 -54 0 0 28 54 0 0 28 -54 0 0 40 54 0 0 28 -83 0 0 -152zm112 0l31 0c17,0 29,1 36,4 7,3 13,8 17,15 4,7 7,15 7,25 0,10 -3,18 -8,25 -4,7 -12,12 -21,15l36 68 -32 0 -34 -64 -3 0 0 64 -29 0 0 -152zm29 59l9 0c9,0 16,-1 19,-3 4,-3 6,-7 6,-12 0,-4 -1,-7 -3,-9 -2,-3 -4,-4 -7,-5 -3,-2 -8,-2 -16,-2l-8 0 0 31zm90 -59l29 0 0 152 -29 0 0 -152zm108 0l29 0 59 152 -30 0 -12 -31 -63 0 -12 31 -30 0 59 -152zm15 40l-21 53 41 0 -20 -53zm96 -40l27 0 66 100 0 -100 29 0 0 152 -28 0 -66 -100 0 100 -28 0 0 -152zm-2160 257l31 0c16,0 28,1 36,5 7,3 13,8 17,14 4,7 7,16 7,25 0,11 -3,20 -9,27 -5,7 -13,12 -22,14 -6,2 -16,3 -31,3l0 64 -29 0 0 -152zm29 60l9 0c7,0 13,-1 15,-2 3,-1 5,-3 7,-5 2,-3 3,-6 3,-9 0,-6 -3,-10 -7,-13 -4,-2 -10,-3 -19,-3l-8 0 0 32zm90 -60l83 0 0 28 -54 0 0 28 54 0 0 28 -54 0 0 40 54 0 0 28 -83 0 0 -152zm111 0l27 0 66 100 0 -100 28 0 0 152 -27 0 -66 -100 0 100 -28 0 0 -152zm156 0l35 0c22,0 38,3 49,8 11,6 20,15 27,27 7,12 10,27 10,43 0,12 -2,23 -6,33 -4,9 -9,18 -16,24 -7,6 -14,11 -22,13 -8,3 -22,4 -42,4l-35 0 0 -152zm29 28l0 96 14 0c13,0 23,-2 29,-5 5,-3 10,-8 14,-15 4,-7 6,-16 6,-26 0,-17 -5,-29 -14,-38 -8,-8 -21,-12 -39,-12l-10 0zm118 -28l28 0 0 152 -28 0 0 -152zm61 0l35 0c22,0 38,3 49,8 11,6 20,15 27,27 7,12 10,27 10,43 0,12 -2,23 -6,33 -4,9 -9,18 -16,24 -7,6 -14,11 -22,13 -8,3 -22,4 -42,4l-35 0 0 -152zm29 28l0 96 14 0c13,0 22,-2 28,-5 6,-3 11,-8 15,-15 4,-7 6,-16 6,-26 0,-17 -5,-29 -14,-38 -8,-8 -21,-12 -39,-12l-10 0zm117 -28l29 0 0 152 -29 0 0 -152zm62 0l29 0 0 53 42 -53 35 0 -54 68 59 84 -35 0 -47 -68 0 68 -29 0 0 -152zm178 0l29 0 59 152 -30 0 -12 -31 -63 0 -12 31 -30 0 59 -152zm15 40l-21 53 41 0 -20 -53zm96 -40l27 0 66 100 0 -100 29 0 0 152 -28 0 -66 -100 0 100 -28 0 0 -152zm216 0l34 0c22,0 39,3 50,8 10,6 19,15 26,27 7,12 11,27 11,43 0,12 -2,23 -6,33 -4,9 -10,18 -16,24 -7,6 -15,11 -23,13 -8,3 -22,4 -41,4l-35 0 0 -152zm29 28l0 96 13 0c13,0 23,-2 29,-5 6,-3 11,-8 15,-15 3,-7 5,-16 5,-26 0,-17 -4,-29 -13,-38 -8,-8 -21,-12 -39,-12l-10 0zm166 -28l29 0 59 152 -31 0 -11 -31 -63 0 -12 31 -30 0 59 -152zm14 40l-20 53 41 0 -21 -53zm96 -40l28 0 65 100 0 -100 29 0 0 152 -27 0 -66 -100 0 100 -29 0 0 -152zm217 0l29 0 0 53 41 -53 35 0 -53 68 58 84 -34 0 -47 -68 0 68 -29 0 0 -152zm131 0l83 0 0 28 -54 0 0 28 54 0 0 28 -54 0 0 40 54 0 0 28 -83 0 0 -152zm110 152l0 -152 24 0c14,0 24,1 31,3 9,2 16,7 22,13 5,7 8,14 8,23 0,6 -2,11 -4,16 -2,5 -6,9 -12,13 9,5 16,10 20,17 5,6 7,14 7,23 0,8 -3,16 -7,23 -4,7 -10,13 -17,16 -7,3 -17,5 -29,5l-43 0zm29 -125l0 33 6 0c8,0 13,-2 16,-5 4,-3 6,-7 6,-12 0,-5 -2,-8 -5,-11 -4,-3 -9,-5 -16,-5l-7 0zm0 59l0 39 7 0c12,0 21,-2 25,-5 4,-3 6,-7 6,-13 0,-7 -2,-12 -7,-16 -5,-3 -13,-5 -25,-5l-6 0zm93 -86l29 0 0 98c0,9 1,15 2,18 2,4 4,7 8,9 3,2 7,3 12,3 5,0 10,-1 13,-4 4,-2 7,-5 8,-8 2,-4 2,-11 2,-21l0 -95 29 0 0 91c0,15 -1,26 -2,32 -2,6 -5,11 -10,17 -5,5 -11,9 -17,12 -6,3 -14,4 -22,4 -11,0 -21,-3 -29,-8 -8,-5 -14,-11 -18,-19 -3,-7 -5,-20 -5,-38l0 -91zm137 0l35 0c22,0 38,3 49,8 11,6 20,15 27,27 6,12 10,27 10,43 0,12 -2,23 -6,33 -4,9 -9,18 -16,24 -7,6 -14,11 -22,13 -8,3 -22,4 -42,4l-35 0 0 -152zm29 28l0 96 14 0c13,0 22,-2 28,-5 6,-3 11,-8 15,-15 4,-7 6,-16 6,-26 0,-17 -5,-29 -14,-38 -8,-8 -21,-12 -39,-12l-10 0zm166 -28l29 0 59 152 -30 0 -12 -31 -63 0 -12 31 -30 0 59 -152zm15 40l-21 53 41 0 -20 -53zm85 -40l31 0 28 55 28 -55 31 0 -45 86 0 66 -29 0 0 -66 -44 -86zm189 0l29 0 58 152 -30 0 -12 -31 -62 0 -12 31 -30 0 59 -152zm14 40l-20 53 41 0 -21 -53zm142 -40l30 0 58 152 -30 0 -12 -31 -62 0 -12 31 -30 0 58 -152zm15 40l-21 53 42 0 -21 -53zm96 -40l28 0 65 100 0 -100 29 0 0 152 -28 0 -65 -100 0 100 -29 0 0 -152z"/>
 </g>
</svg>
